<svg id="visual" viewBox="0 0 900 600" width="900" height="600" xmlns="http://www.w3.org/2000/svg" xmlns:xlink="http://www.w3.org/1999/xlink" version="1.1"><rect x="0" y="0" width="900" height="600" fill="#011c28"></rect><path d="M0 402L129 370L257 395L386 408L514 380L643 382L771 436L900 384L900 601L771 601L643 601L514 601L386 601L257 601L129 601L0 601Z" fill="#7790fd"></path><path d="M0 462L129 466L257 411L386 416L514 434L643 479L771 416L900 444L900 601L771 601L643 601L514 601L386 601L257 601L129 601L0 601Z" fill="#6378fd"></path><path d="M0 484L129 472L257 441L386 454L514 482L643 508L771 452L900 466L900 601L771 601L643 601L514 601L386 601L257 601L129 601L0 601Z" fill="#545dfb"></path><path d="M0 494L129 500L257 523L386 520L514 488L643 501L771 538L900 480L900 601L771 601L643 601L514 601L386 601L257 601L129 601L0 601Z" fill="#4d3ef5"></path><path d="M0 525L129 544L257 526L386 556L514 537L643 534L771 554L900 568L900 601L771 601L643 601L514 601L386 601L257 601L129 601L0 601Z" fill="#4d04ec"></path></svg>