<svg id="visual" viewBox="0 0 900 600" width="900" height="600" xmlns="http://www.w3.org/2000/svg" xmlns:xlink="http://www.w3.org/1999/xlink" version="1.1"><rect x="0" y="0" width="900" height="600" fill="#011c28"></rect><defs><linearGradient id="grad1_0" x1="33.3%" y1="0%" x2="100%" y2="100%"><stop offset="20%" stop-color="#011c28" stop-opacity="1"></stop><stop offset="80%" stop-color="#011c28" stop-opacity="1"></stop></linearGradient></defs><defs><linearGradient id="grad2_0" x1="0%" y1="0%" x2="66.7%" y2="100%"><stop offset="20%" stop-color="#011c28" stop-opacity="1"></stop><stop offset="80%" stop-color="#011c28" stop-opacity="1"></stop></linearGradient></defs><g transform="translate(900, 0)"><path d="M0 378.6C-33.5 357.1 -67 335.7 -106.6 328.1C-146.3 320.5 -192.1 326.8 -222.5 306.3C-252.9 285.8 -267.9 238.5 -273.4 198.7C-279 158.8 -275.1 126.4 -291 94.6C-307 62.7 -342.8 31.3 -378.6 0L0 0Z" fill="#7790fd"></path></g><g transform="translate(0, 600)"><path d="M0 -378.6C44.6 -377.9 89.2 -377.2 113.4 -349C137.6 -320.8 141.3 -265.1 178.7 -245.9C216.1 -226.8 287.2 -244.3 306.3 -222.5C325.4 -200.8 292.4 -139.7 295.8 -96.1C299.2 -52.5 338.9 -26.2 378.6 0L0 0Z" fill="#7790fd"></path></g></svg>