<svg id="visual" viewBox="0 0 900 600" width="900" height="600" xmlns="http://www.w3.org/2000/svg" xmlns:xlink="http://www.w3.org/1999/xlink" version="1.1"><rect x="0" y="0" width="900" height="600" fill="#011c28"></rect><path d="M300 0L330 86L298 171L312 257L337 343L304 429L253 514L258 600L0 600L0 514L0 429L0 343L0 257L0 171L0 86L0 0Z" fill="#4d04ec"></path><path d="M256 0L254 86L216 171L243 257L265 343L180 429L247 514L285 600L0 600L0 514L0 429L0 343L0 257L0 171L0 86L0 0Z" fill="#5b6bfd"></path><path d="M157 0L193 86L238 171L220 257L173 343L154 429L210 514L199 600L0 600L0 514L0 429L0 343L0 257L0 171L0 86L0 0Z" fill="#7790fd"></path><path d="M165 0L89 86L107 171L131 257L90 343L100 429L146 514L123 600L0 600L0 514L0 429L0 343L0 257L0 171L0 86L0 0Z" fill="#5b6bfd"></path><path d="M107 0L101 86L83 171L40 257L106 343L108 429L55 514L69 600L0 600L0 514L0 429L0 343L0 257L0 171L0 86L0 0Z" fill="#4d04ec"></path></svg>