<svg id="visual" viewBox="0 0 900 600" width="900" height="600" xmlns="http://www.w3.org/2000/svg" xmlns:xlink="http://www.w3.org/1999/xlink" version="1.1"><rect x="0" y="0" width="900" height="600" fill="#7790fd"></rect><defs><linearGradient id="grad1_0" x1="33.3%" y1="100%" x2="100%" y2="0%"><stop offset="20%" stop-color="#7790fd" stop-opacity="1"></stop><stop offset="80%" stop-color="#7790fd" stop-opacity="1"></stop></linearGradient></defs><defs><linearGradient id="grad2_0" x1="0%" y1="100%" x2="66.7%" y2="0%"><stop offset="20%" stop-color="#7790fd" stop-opacity="1"></stop><stop offset="80%" stop-color="#7790fd" stop-opacity="1"></stop></linearGradient></defs><g transform="translate(900, 600)"><path d="M-486.7 0C-447.3 -49.3 -407.8 -98.5 -390.8 -161.9C-373.8 -225.2 -379.2 -302.6 -344.2 -344.2C-309.1 -385.8 -233.6 -391.5 -169.5 -409.3C-105.4 -427.1 -52.7 -456.9 0 -486.7L0 0Z" fill="#4d04ec"></path></g><g transform="translate(0, 0)"><path d="M486.7 0C443.3 49.3 399.9 98.7 380.6 157.7C361.4 216.6 366.3 285.3 338 338C309.7 390.7 248.1 427.6 186.3 449.7C124.4 471.8 62.2 479.3 0 486.7L0 0Z" fill="#4d04ec"></path></g></svg>