<svg id="visual" viewBox="0 0 900 600" width="900" height="600" xmlns="http://www.w3.org/2000/svg" xmlns:xlink="http://www.w3.org/1999/xlink" version="1.1"><rect x="0" y="0" width="900" height="600" fill="#7790fd"></rect><path d="M0 447L129 360L257 360L386 405L514 432L643 392L771 354L900 392L900 601L771 601L643 601L514 601L386 601L257 601L129 601L0 601Z" fill="#f5fcff"></path><path d="M0 450L129 406L257 429L386 462L514 457L643 414L771 466L900 432L900 601L771 601L643 601L514 601L386 601L257 601L129 601L0 601Z" fill="#abb9c3"></path><path d="M0 492L129 468L257 470L386 461L514 462L643 461L771 477L900 504L900 601L771 601L643 601L514 601L386 601L257 601L129 601L0 601Z" fill="#6b798b"></path><path d="M0 537L129 506L257 537L386 541L514 511L643 521L771 515L900 480L900 601L771 601L643 601L514 601L386 601L257 601L129 601L0 601Z" fill="#353d56"></path><path d="M0 538L129 529L257 572L386 556L514 555L643 564L771 530L900 545L900 601L771 601L643 601L514 601L386 601L257 601L129 601L0 601Z" fill="#0c0123"></path></svg>